<?xml version="1.0" standalone="no"?>
<!DOCTYPE svg PUBLIC "-//W3C//DTD SVG 20010904//EN"
 "http://www.w3.org/TR/2001/REC-SVG-20010904/DTD/svg10.dtd">
<svg version="1.0" xmlns="http://www.w3.org/2000/svg"
 width="366.000000pt" height="99.000000pt" viewBox="0 0 366.000000 99.000000"
 preserveAspectRatio="xMidYMid meet">

<g transform="translate(0.000000,99.000000) scale(0.100000,-0.100000)"
fill="#000000" stroke="none">
<path d="M2379 952 c-43 -28 -63 -56 -94 -135 -13 -33 -17 -37 -34 -28 -11 6
-31 25 -45 43 l-25 32 -11 -29 c-28 -74 1 -131 69 -137 34 -3 36 -5 39 -39 3
-35 1 -38 -43 -59 -82 -40 -98 -124 -28 -151 35 -13 76 4 108 45 l24 30 53
-22 c72 -31 73 -31 76 6 3 26 -3 39 -28 62 -17 16 -47 35 -66 42 -34 12 -35
14 -30 56 3 36 13 53 59 100 88 93 108 152 65 192 -28 26 -36 25 -89 -8z m51
-46 c0 -8 -18 -33 -40 -57 -28 -32 -39 -39 -40 -26 0 24 36 94 52 100 17 6 28
-1 28 -17z m-170 -395 c0 -16 -31 -42 -41 -35 -6 4 -3 14 7 25 18 20 34 25 34
10z"/>
<path d="M3167 889 c-12 -16 -27 -24 -47 -24 -39 0 -42 -19 -4 -25 24 -5 28
-10 26 -30 -15 -126 -18 -135 -35 -138 -14 -3 -17 4 -17 38 0 27 -5 43 -15 46
-23 9 -47 -16 -42 -43 5 -29 -19 -44 -50 -32 -27 10 -30 31 -6 50 20 17 53 87
53 114 0 34 -15 48 -45 41 -32 -8 -75 -92 -75 -148 0 -21 -4 -38 -10 -38 -5 0
-10 13 -10 29 0 17 -4 32 -9 35 -4 3 -35 1 -67 -4 -62 -10 -84 -27 -84 -67 0
-13 -4 -23 -10 -23 -5 0 -10 17 -10 39 0 47 -19 67 -50 51 -16 -9 -25 -8 -36
0 -24 21 -43 4 -46 -41 -4 -59 -28 -65 -28 -7 0 47 -16 74 -34 58 -6 -5 -31
-10 -56 -12 -36 -2 -47 -8 -59 -30 -14 -24 -14 -30 2 -62 l16 -35 83 0 c46 1
92 -1 103 -3 17 -3 21 4 25 46 7 65 30 75 30 13 0 -57 19 -76 56 -56 20 10 29
11 44 1 11 -7 31 -12 46 -12 l25 0 -20 -29 c-31 -44 -37 -87 -16 -111 43 -48
80 -11 91 90 8 81 18 96 50 75 27 -17 67 -20 94 -5 13 7 21 7 25 0 8 -13 51
-13 75 0 13 7 21 7 25 0 10 -16 40 -12 58 8 22 24 21 35 -2 27 -36 -11 -41 16
-16 90 l22 70 53 3 c37 2 57 -1 70 -13 16 -14 19 -14 40 3 38 31 17 42 -79 42
-80 0 -90 2 -103 22 l-14 21 -17 -24z m-167 -64 c0 -20 -22 -65 -32 -65 -11 0
-10 23 2 54 10 28 30 35 30 11z m-502 -124 c3 -30 2 -32 -20 -26 -39 13 -49
38 -20 54 26 15 37 8 40 -28z m340 0 c5 -30 -10 -45 -37 -36 -13 4 -21 15 -21
30 0 40 53 46 58 6z m-12 -199 c-12 -12 -18 8 -10 35 l8 28 4 -28 c2 -16 1
-31 -2 -35z"/>
<path d="M3063 823 c-18 -7 -16 -32 2 -39 23 -9 48 15 34 32 -12 15 -16 16
-36 7z"/>
<path d="M3292 763 c-48 -4 -53 -6 -50 -26 2 -16 11 -23 32 -25 l28 -4 -28
-29 c-26 -27 -27 -31 -12 -40 16 -9 15 -13 -7 -46 -42 -60 -28 -113 29 -113
55 0 105 74 85 128 -7 19 -4 28 13 44 l23 19 -31 -5 c-47 -8 -58 11 -28 47 24
29 28 50 8 52 -5 1 -33 -1 -62 -2z m28 -196 c0 -41 -35 -81 -50 -57 -14 22
-12 43 6 68 23 33 44 28 44 -11z"/>
<path d="M545 699 c-11 -6 -30 -26 -42 -44 l-21 -34 24 -16 c17 -11 35 -14 59
-9 40 7 40 7 19 -34 -18 -38 -76 -58 -118 -42 -14 5 -26 7 -26 4 0 -2 -9 0
-20 6 -23 13 -35 -5 -51 -78 -10 -48 -12 -50 -50 -56 -88 -14 -131 -98 -90
-176 17 -33 18 -40 6 -40 -8 0 -15 4 -15 9 0 11 -168 12 -175 0 -4 -5 0 -9 7
-10 7 0 2 -5 -11 -10 -13 -5 -21 -12 -17 -16 13 -13 672 -19 921 -9 194 8 410
6 447 -5 16 -4 40 -4 52 1 13 5 89 4 175 -1 129 -8 162 -7 214 6 49 13 90 15
196 10 96 -5 131 -4 127 4 -4 6 -14 11 -22 11 -30 0 -2 20 29 21 18 0 41 4 52
9 28 11 7 17 -86 24 -61 4 -82 2 -110 -13 -22 -12 -66 -20 -126 -24 -51 -3
-93 -4 -93 -2 0 2 12 16 27 31 24 24 30 26 56 16 24 -9 28 -8 25 6 -3 12 -12
16 -33 14 -25 -2 -27 0 -13 8 12 7 29 8 52 1 24 -6 36 -6 38 1 2 6 51 12 113
15 195 8 173 28 -35 32 -128 2 -170 7 -170 21 0 4 30 11 67 15 89 9 63 21 -49
23 -90 2 -123 11 -96 28 7 5 66 10 131 12 64 2 117 8 117 13 0 5 -12 10 -27
11 -16 1 -37 2 -48 3 -11 1 -47 3 -80 4 -61 1 -96 13 -81 28 7 7 58 10 204 12
34 1 62 5 62 11 0 6 -43 10 -107 10 -124 0 -191 9 -171 21 7 5 40 9 73 9 42 0
56 3 45 10 -8 5 -47 10 -86 10 -177 0 -181 33 -6 44 98 6 86 16 -19 16 -114 0
-169 8 -169 25 0 18 24 25 89 25 78 0 242 12 237 17 -2 3 -85 7 -183 10 -98 3
-186 9 -195 14 -30 16 -59 9 -89 -20 -51 -52 -34 -107 27 -88 26 8 38 7 47 -2
9 -10 8 -15 -8 -27 -11 -9 -19 -20 -17 -25 1 -6 -13 -16 -32 -24 -33 -14 -90
-10 -136 9 -21 8 -32 -2 -71 -67 -34 -58 -35 -58 -72 -53 -23 4 -51 1 -75 -10
-29 -12 -56 -14 -122 -9 -47 4 -89 10 -95 13 -13 9 71 20 152 21 34 1 65 6 68
11 3 6 0 10 -7 10 -40 0 -186 21 -215 31 -44 14 -32 31 21 28 124 -6 148 15
29 25 -136 11 -173 18 -173 29 0 7 19 13 43 15 95 6 101 32 8 32 -74 0 -151
10 -151 20 0 5 48 11 108 15 185 11 180 20 -21 35 -93 6 -159 16 -177 25 -33
17 -38 17 -65 4z m41 -47 c-8 -9 -19 -13 -22 -9 -10 9 16 38 28 31 6 -4 4 -13
-6 -22z m934 20 c0 -15 -28 -47 -35 -40 -8 8 13 48 25 48 6 0 10 -4 10 -8z
m-1100 -172 c0 -5 -4 -10 -10 -10 -5 0 -10 5 -10 10 0 6 5 10 10 10 6 0 10 -4
10 -10z m925 -10 c-3 -5 -11 -10 -16 -10 -6 0 -7 5 -4 10 3 6 11 10 16 10 6 0
7 -4 4 -10z m-655 -20 l25 -20 -25 0 c-14 0 -41 -8 -59 -18 -34 -18 -35 -18
-90 5 -31 12 -73 23 -93 23 -21 0 -38 4 -38 9 0 6 39 7 93 4 53 -3 102 -1 117
5 35 15 42 14 70 -8z m812 -11 c29 4 58 10 64 14 13 7 52 -18 43 -28 -6 -6
-38 -11 -82 -14 -9 0 -25 -10 -34 -20 -16 -19 -17 -19 -40 -1 -13 10 -49 24
-80 30 -53 11 -60 24 -18 32 11 2 36 -1 57 -8 23 -8 55 -10 90 -5z m-1087 -57
c14 -10 99 -142 94 -146 -2 -2 -18 -2 -34 1 -28 4 -31 8 -31 40 0 29 -7 42
-37 68 -34 30 -39 45 -13 45 6 0 16 -4 21 -8z m101 -48 c36 -38 44 -68 19 -78
-16 -6 -88 90 -79 106 10 16 27 8 60 -28z m816 -1 c33 -35 52 -80 35 -86 -31
-10 -54 6 -66 46 -6 23 -14 48 -17 55 -10 22 22 12 48 -15z m-614 5 c-7 -19
-38 -22 -38 -4 0 10 9 16 21 16 12 0 19 -5 17 -12z m72 2 c0 -5 -7 -10 -16
-10 -8 0 -12 5 -9 10 3 6 10 10 16 10 5 0 9 -4 9 -10z m159 -21 c65 -61 -21
-171 -100 -129 -26 15 -24 30 5 30 13 0 34 9 47 20 l24 20 -27 24 c-18 16 -34
22 -52 19 -17 -4 -26 -1 -26 7 0 7 8 10 20 7 13 -3 20 0 20 8 0 29 56 25 89
-6z m261 16 c0 -8 -9 -24 -20 -35 -11 -11 -20 -27 -20 -35 0 -10 -10 -15 -30
-15 -23 0 -30 4 -30 20 0 14 7 20 22 20 21 0 21 1 3 13 -17 13 -17 15 6 30 30
21 69 22 69 2z m-870 -6 c0 -6 -9 -22 -19 -36 -21 -25 -19 -48 4 -57 21 -8 38
19 27 41 -6 11 -6 27 -1 41 18 49 76 -20 63 -74 -15 -60 -96 -83 -139 -39 -31
30 -32 73 -4 109 20 26 69 37 69 15z m740 2 c0 -16 -18 -22 -45 -15 -20 5 -23
9 -13 15 18 12 58 11 58 0z m423 -38 c8 -48 -8 -71 -34 -47 -19 17 -17 55 4
81 14 19 24 8 30 -34z m115 27 c-7 -11 -23 -20 -35 -20 -16 0 -23 6 -23 20 0
16 7 20 35 20 33 0 34 -1 23 -20z m168 -25 c20 -31 11 -79 -19 -100 -27 -19
-77 -19 -103 -1 -21 16 -18 18 39 30 34 8 44 30 27 61 -7 13 -10 31 -6 40 7
20 39 5 62 -30z m-528 23 c7 -7 12 -29 12 -49 0 -58 -58 -94 -114 -73 -32 12
-15 24 34 24 28 0 50 5 50 10 0 6 -6 10 -12 10 -15 0 -18 58 -5 78 10 15 20
15 35 0z m140 -20 c6 -17 10 -34 7 -36 -8 -8 -23 9 -33 38 -15 42 10 41 26 -2z
m296 16 c9 -23 8 -24 -18 -24 -32 0 -42 16 -19 29 25 14 30 13 37 -5z m-1056
-16 c14 -14 16 -28 2 -28 -5 0 -14 9 -20 20 -12 22 -1 27 18 8z m109 -76 c-23
-4 -23 -4 -31 35 -6 28 -4 32 16 35 20 3 24 -2 28 -32 4 -28 2 -36 -13 -38z
m87 62 c24 -9 21 -54 -4 -54 -23 0 -35 22 -26 45 6 17 8 17 30 9z m236 -19 c0
-16 -45 -21 -54 -6 -8 12 4 21 31 21 14 0 23 -6 23 -15z m530 -15 c0 -23 -4
-30 -20 -30 -16 0 -20 7 -20 30 0 23 4 30 20 30 16 0 20 -7 20 -30z m90 5 c0
-20 -5 -25 -24 -25 -14 0 -28 5 -31 10 -12 19 4 40 30 40 20 0 25 -5 25 -25z
m-245 -9 c16 -12 17 -16 6 -30 -18 -21 -28 -20 -41 4 -19 35 2 51 35 26z
m-858 -5 c9 9 14 7 19 -5 6 -15 9 -15 30 -1 21 14 24 14 24 0 0 -8 -5 -15 -12
-15 -8 0 -8 -5 2 -15 12 -11 26 -13 67 -6 44 7 55 5 68 -9 16 -18 20 -35 7
-26 -17 10 -100 7 -197 -8 -62 -9 -104 -11 -109 -5 -13 12 -29 12 -21 -1 3 -5
1 -10 -4 -10 -6 0 -11 5 -11 10 0 6 -9 10 -20 10 -11 0 -20 5 -20 10 0 6 6 10
13 10 7 0 18 9 25 20 7 11 19 20 28 20 14 0 14 -3 3 -16 -11 -13 -9 -14 14 -9
17 5 27 3 27 -4 0 -6 11 -11 25 -11 14 0 25 5 25 10 0 6 -9 10 -20 10 -22 0
-26 20 -8 38 8 8 15 9 22 2 6 -6 14 -6 23 1z m811 -28 c2 -7 -2 -13 -9 -13 -7
0 -20 -6 -28 -14 -21 -18 -101 -30 -101 -15 0 6 9 13 19 16 11 3 21 13 24 24
4 15 13 18 48 16 23 -1 44 -8 47 -14z m-306 -10 c28 -26 22 -30 -37 -25 -35 3
-60 0 -70 -8 -23 -19 -18 1 7 27 26 27 73 30 100 6z m536 -23 c13 -16 18 -30
13 -30 -5 0 -13 5 -17 11 -5 8 -45 10 -130 7 -68 -3 -124 -1 -124 4 0 4 8 8
18 9 9 1 43 3 75 5 31 2 65 8 75 13 33 20 67 12 90 -19z"/>
<path d="M2626 529 c-42 -12 -82 -55 -108 -116 -18 -43 -26 -53 -46 -53 -14 0
-36 13 -52 30 -30 33 -43 28 -55 -21 -13 -54 40 -109 106 -109 15 0 19 -8 19
-34 0 -30 -6 -37 -45 -60 -50 -30 -65 -51 -65 -95 0 -39 24 -61 66 -61 34 0
84 35 84 60 0 17 40 11 90 -14 27 -13 51 -22 54 -19 3 4 6 22 6 40 0 42 -44
90 -89 99 -30 6 -31 8 -31 59 0 46 3 55 27 71 62 40 116 128 111 180 -3 42
-26 56 -72 43z m14 -60 c0 -21 -50 -79 -69 -79 -17 0 -13 30 10 66 24 39 59
46 59 13z m-170 -397 c0 -5 -9 -17 -19 -26 -14 -13 -21 -14 -27 -5 -4 7 1 18
11 26 21 15 35 17 35 5z"/>
<path d="M3089 521 c-22 -18 -24 -27 -27 -138 -2 -65 -8 -124 -14 -130 -12
-15 -54 -17 -63 -4 -3 6 2 37 11 70 12 43 23 63 37 67 18 6 19 8 6 18 -8 6
-20 24 -27 39 -14 33 -32 31 -50 -6 -13 -26 -15 -27 -103 -27 -50 0 -100 5
-111 11 -29 15 -48 -5 -26 -27 13 -13 37 -16 123 -15 l107 2 -4 -66 c-3 -36
-10 -71 -16 -77 -20 -20 -41 0 -44 44 -3 42 -4 43 -38 44 -54 2 -89 -15 -96
-45 -10 -47 -13 -51 -37 -51 -37 0 -40 12 -10 36 23 19 26 26 17 41 -23 38
-94 20 -109 -27 -10 -31 13 -77 44 -90 29 -12 73 -2 86 20 5 8 12 7 24 -4 20
-18 125 -17 160 3 21 11 25 11 33 -3 11 -19 35 -20 67 -2 22 12 27 11 42 -8
25 -30 43 -9 44 52 1 34 5 47 16 47 10 0 13 -9 11 -32 -5 -48 6 -73 32 -73 12
0 27 5 33 11 9 9 20 8 46 -4 48 -23 99 -8 132 41 24 36 25 36 25 10 0 -14 8
-35 18 -47 15 -20 21 -21 50 -10 25 9 40 9 58 0 14 -6 31 -11 39 -11 22 0 55
37 55 61 0 23 -47 89 -64 89 -6 0 -24 -20 -39 -45 -19 -29 -36 -45 -49 -45
-17 0 -19 5 -14 33 7 41 -5 61 -33 52 -12 -4 -28 -2 -36 5 -21 17 -32 5 -27
-30 5 -37 -20 -70 -55 -70 -30 0 -29 6 5 35 22 20 25 27 16 42 -6 10 -25 19
-42 21 -39 4 -72 -27 -72 -68 0 -19 -5 -30 -14 -30 -11 0 -16 14 -18 48 -3 46
-4 47 -35 46 -43 -2 -48 24 -12 77 38 58 46 95 23 120 -22 24 -45 24 -75 0z
m54 -23 c5 -16 -12 -68 -23 -68 -4 0 -6 15 -4 33 1 17 3 35 3 40 1 12 19 8 24
-5z m-443 -207 c0 -5 -7 -11 -15 -15 -15 -5 -20 5 -8 17 9 10 23 9 23 -2z
m145 -19 c2 -30 -21 -40 -42 -19 -14 13 -14 19 -3 32 18 22 43 15 45 -13z
m455 13 c-7 -8 -16 -12 -21 -9 -13 8 -1 24 18 24 13 0 13 -3 3 -15z m278 -38
c2 -12 -3 -17 -17 -17 -23 0 -24 1 -15 25 8 19 28 15 32 -8z"/>
</g>
</svg>
